<mxfile host="app.diagrams.net" modified="2021-05-31T08:40:08.870Z" agent="5.0 (Windows NT 6.1; Win64; x64) AppleWebKit/537.36 (KHTML, like Gecko) Chrome/90.0.4430.212 Safari/537.36" etag="5lWxNwXXzU_bD02AuXMy" version="14.7.2" type="github">
  <diagram id="cd64epJBCo_FnriahyT2" name="第 1 页">
    <mxGraphModel dx="860" dy="474" grid="0" gridSize="10" guides="1" tooltips="1" connect="1" arrows="1" fold="1" page="0" pageScale="1" pageWidth="827" pageHeight="1169" math="0" shadow="0">
      <root>
        <mxCell id="0" />
        <mxCell id="1" parent="0" />
      </root>
    </mxGraphModel>
  </diagram>
</mxfile>
